<?xml version="1.0" encoding="UTF-8" standalone="no"?>
<svg
   xmlns:dc="http://purl.org/dc/elements/1.1/"
   xmlns:cc="http://creativecommons.org/ns#"
   xmlns:rdf="http://www.w3.org/1999/02/22-rdf-syntax-ns#"
   xmlns:svg="http://www.w3.org/2000/svg"
   xmlns="http://www.w3.org/2000/svg"
   xmlns:sodipodi="http://sodipodi.sourceforge.net/DTD/sodipodi-0.dtd"
   xmlns:inkscape="http://www.inkscape.org/namespaces/inkscape"
   width="442"
   height="358"
   viewBox="0 0 442 358"
   fill="none"
   version="1.1"
   id="svg6"
   sodipodi:docname="Group 1.svg"
   inkscape:version="1.0.1 (3bc2e813f5, 2020-09-07)">
  <metadata
     id="metadata12">
    <rdf:RDF>
      <cc:Work
         rdf:about="">
        <dc:format>image/svg+xml</dc:format>
        <dc:type
           rdf:resource="http://purl.org/dc/dcmitype/StillImage" />
        <dc:title></dc:title>
      </cc:Work>
    </rdf:RDF>
  </metadata>
  <defs
     id="defs10" />
  <sodipodi:namedview
     pagecolor="#ffffff"
     bordercolor="#666666"
     borderopacity="1"
     objecttolerance="10"
     gridtolerance="10"
     guidetolerance="10"
     inkscape:pageopacity="0"
     inkscape:pageshadow="2"
     inkscape:window-width="1920"
     inkscape:window-height="1017"
     id="namedview8"
     showgrid="false"
     inkscape:zoom="2.3100559"
     inkscape:cx="221"
     inkscape:cy="179"
     inkscape:window-x="-8"
     inkscape:window-y="-8"
     inkscape:window-maximized="1"
     inkscape:current-layer="svg6" />
  <path
     opacity="0.1"
     d="m 52.972424,41.761841 c 4.0373,-24.0889 24.8874,-41.73540065 49.311796,-41.73540065 h 289.68301 c 27.614,0 50,22.38580065 50,50.00000065 V 308.02634 c 0,27.614 -22.386,50 -50,50 H 59.044424 c -30.9153,0 -54.4222499,-27.774 -49.3121799,-58.264 z"
     fill="#68c9ba"
     id="path2" />
  <path
     d="m 409.98123,94.056341 c 25.724,29.176999 -4.651,57.350999 -58.111,58.110999 -106.287,-7.004 -130.272,-101.133599 -122.239,-122.238199 8.033,-21.1046007 31.951,-21.6807007 67.39,21.3123 35.439,42.9929 80.804,6.3421 112.96,42.8149 z"
     stroke="#ffffff"
     stroke-width="1.5"
     id="path4" />
  <ellipse
     cx="306.77335"
     cy="-52.764534"
     rx="16.848101"
     ry="9.9556904"
     transform="rotate(20.7184)"
     stroke="#ffffff"
     stroke-width="1.5"
     id="ellipse6" />
</svg>
