<svg width="178" height="158" viewBox="0 0 178 158" fill="none" xmlns="http://www.w3.org/2000/svg">
<ellipse opacity="0.1" cx="89" cy="133.102" rx="25" ry="24.538" fill="#212353"/>
<path fill-rule="evenodd" clip-rule="evenodd" d="M88.9096 6.48815L88.8699 5.86986C88.7511 4.26742 89.7939 2.80375 91.4438 2.236C92.051 2.0341 93.0805 2.00886 93.7537 2.18553C94.0177 2.26124 94.5193 2.51355 94.8756 2.74069L95.5224 3.15708L96.2352 2.9426C96.6312 2.82899 97.1592 2.63974 97.3967 2.51355C97.6211 2.40001 97.8191 2.33688 97.8191 2.37478C97.8191 2.58926 97.3307 3.3211 96.9216 3.72483C96.3672 4.29265 96.5256 4.34313 97.6475 3.96456C98.3207 3.75007 98.3338 3.75007 98.2019 3.9898C98.1226 4.11599 97.7135 4.55762 97.2779 4.96136C96.5387 5.65537 96.4992 5.73108 96.4992 6.31149C96.4992 7.20733 96.0504 9.07473 95.6016 10.0968C94.77 12.0146 92.9881 13.9956 91.2062 14.9924C88.6984 16.393 85.3589 16.7462 82.5475 15.9261C81.6103 15.6485 80 14.9419 80 14.8158C80 14.7779 80.4883 14.7274 81.0824 14.7148C82.3231 14.6896 83.5638 14.3615 84.6197 13.7811L85.3326 13.3774L84.5142 13.1124C83.3526 12.7338 82.3099 11.8632 82.0459 11.0431C81.9667 10.7781 81.9931 10.7655 82.7323 10.7655L83.4978 10.7529L82.8511 10.4627C82.0855 10.0968 81.3859 9.47847 81.0427 8.84759C80.7919 8.39338 80.4752 7.24515 80.5676 7.15685C80.5939 7.11903 80.8712 7.19467 81.188 7.29563C82.0987 7.61107 82.2175 7.53535 81.6895 7.00542C80.6995 6.04652 80.396 4.62068 80.8712 3.27062L81.0956 2.66498L81.9667 3.48511C83.7486 5.13802 85.8473 6.12224 88.2496 6.41244L88.9096 6.48815Z" fill="white"/>
<ellipse opacity="0.1" cx="153" cy="133.102" rx="25" ry="24.538" fill="#212353"/>
<path d="M153.002 5.7657C150.732 5.7657 148.901 7.5035 148.901 9.65796C148.901 11.8124 150.732 13.5502 153.002 13.5502C155.272 13.5502 157.103 11.8124 157.103 9.65796C157.103 7.5035 155.272 5.7657 153.002 5.7657ZM153.002 12.1884C151.535 12.1884 150.335 11.0536 150.335 9.65796C150.335 8.2623 151.531 7.12748 153.002 7.12748C154.472 7.12748 155.668 8.2623 155.668 9.65796C155.668 11.0536 154.469 12.1884 153.002 12.1884ZM158.227 5.60649C158.227 6.11123 157.799 6.51434 157.271 6.51434C156.739 6.51434 156.314 6.10784 156.314 5.60649C156.314 5.10514 156.743 4.69864 157.271 4.69864C157.799 4.69864 158.227 5.10514 158.227 5.60649ZM160.944 6.52789C160.883 5.31178 160.59 4.23455 159.652 3.34702C158.716 2.45949 157.581 2.18171 156.3 2.12074C154.979 2.0496 151.021 2.0496 149.7 2.12074C148.422 2.17832 147.287 2.4561 146.348 3.34363C145.41 4.23116 145.12 5.30839 145.056 6.52451C144.981 7.77789 144.981 11.5346 145.056 12.788C145.117 14.0041 145.41 15.0814 146.348 15.9689C147.287 16.8564 148.419 17.1342 149.7 17.1952C151.021 17.2663 154.979 17.2663 156.3 17.1952C157.581 17.1376 158.716 16.8598 159.652 15.9689C160.587 15.0814 160.88 14.0041 160.944 12.788C161.019 11.5346 161.019 7.78128 160.944 6.52789ZM159.238 14.1329C158.959 14.7968 158.42 15.3083 157.717 15.5759C156.664 15.9723 154.165 15.8808 153.002 15.8808C151.838 15.8808 149.336 15.9689 148.287 15.5759C147.587 15.3117 147.048 14.8002 146.766 14.1329C146.348 13.1336 146.445 10.7623 146.445 9.65796C146.445 8.55363 146.352 6.17898 146.766 5.18305C147.044 4.5191 147.583 4.00758 148.287 3.73997C149.34 3.34363 151.838 3.43509 153.002 3.43509C154.165 3.43509 156.668 3.34702 157.717 3.73997C158.417 4.00419 158.956 4.51571 159.238 5.18305C159.655 6.18237 159.559 8.55363 159.559 9.65796C159.559 10.7623 159.655 13.1369 159.238 14.1329Z" fill="white"/>
<ellipse opacity="0.1" cx="25" cy="133.102" rx="25" ry="24.538" fill="#212353"/>
<path d="M26.37 19.6099V9.88888H29.204L29.5796 6.53897H26.37L26.3748 4.86231C26.3748 3.9886 26.4625 3.52045 27.7878 3.52045H29.5595V0.170166H26.7251C23.3205 0.170166 22.1222 1.79523 22.1222 4.52808V6.53935H20V9.88926H22.1222V19.6099H26.37Z" fill="white"/>
</svg>
